<mxfile host="Electron" modified="2023-07-03T02:49:39.216Z" agent="Mozilla/5.0 (Windows NT 10.0; Win64; x64) AppleWebKit/537.36 (KHTML, like Gecko) draw.io/21.5.0 Chrome/112.0.5615.204 Electron/24.5.1 Safari/537.36" etag="pqugQ1ifKj7wDkgAJ-jg" version="21.5.0" type="device">
  <diagram name="Page-1" id="nkuPIv25z-jeVFh9-4At">
    <mxGraphModel dx="566" dy="552" grid="1" gridSize="10" guides="1" tooltips="1" connect="1" arrows="1" fold="1" page="1" pageScale="1" pageWidth="850" pageHeight="1100" math="0" shadow="0">
      <root>
        <mxCell id="0" />
        <mxCell id="1" parent="0" />
        <mxCell id="SIFYPCahr8CVQ4eLkMU3-1" value="" style="rounded=1;whiteSpace=wrap;html=1;absoluteArcSize=1;arcSize=14;strokeWidth=2;" vertex="1" parent="1">
          <mxGeometry x="280" y="50" width="40" height="40" as="geometry" />
        </mxCell>
        <mxCell id="SIFYPCahr8CVQ4eLkMU3-2" value="" style="rounded=1;whiteSpace=wrap;html=1;absoluteArcSize=1;arcSize=14;strokeWidth=2;" vertex="1" parent="1">
          <mxGeometry x="320" y="50" width="40" height="40" as="geometry" />
        </mxCell>
        <mxCell id="SIFYPCahr8CVQ4eLkMU3-3" value="" style="rounded=1;whiteSpace=wrap;html=1;absoluteArcSize=1;arcSize=14;strokeWidth=2;" vertex="1" parent="1">
          <mxGeometry x="360" y="50" width="40" height="40" as="geometry" />
        </mxCell>
        <mxCell id="SIFYPCahr8CVQ4eLkMU3-4" value="" style="rounded=1;whiteSpace=wrap;html=1;absoluteArcSize=1;arcSize=14;strokeWidth=2;" vertex="1" parent="1">
          <mxGeometry x="400" y="50" width="40" height="40" as="geometry" />
        </mxCell>
        <mxCell id="SIFYPCahr8CVQ4eLkMU3-5" value="" style="rounded=1;whiteSpace=wrap;html=1;absoluteArcSize=1;arcSize=14;strokeWidth=2;" vertex="1" parent="1">
          <mxGeometry x="440" y="50" width="40" height="40" as="geometry" />
        </mxCell>
        <mxCell id="SIFYPCahr8CVQ4eLkMU3-6" value="7" style="strokeWidth=2;html=1;shape=mxgraph.flowchart.start_2;whiteSpace=wrap;fillColor=#dae8fc;strokeColor=#6c8ebf;" vertex="1" parent="1">
          <mxGeometry x="280" y="70" width="40" height="40" as="geometry" />
        </mxCell>
        <mxCell id="SIFYPCahr8CVQ4eLkMU3-7" value="3" style="strokeWidth=2;html=1;shape=mxgraph.flowchart.start_2;whiteSpace=wrap;fillColor=#dae8fc;strokeColor=#6c8ebf;" vertex="1" parent="1">
          <mxGeometry x="320" y="70" width="40" height="40" as="geometry" />
        </mxCell>
        <mxCell id="SIFYPCahr8CVQ4eLkMU3-8" value="2" style="strokeWidth=2;html=1;shape=mxgraph.flowchart.start_2;whiteSpace=wrap;fillColor=#dae8fc;strokeColor=#6c8ebf;" vertex="1" parent="1">
          <mxGeometry x="360" y="70" width="40" height="40" as="geometry" />
        </mxCell>
        <mxCell id="SIFYPCahr8CVQ4eLkMU3-9" value="4" style="strokeWidth=2;html=1;shape=mxgraph.flowchart.start_2;whiteSpace=wrap;fillColor=#dae8fc;strokeColor=#6c8ebf;" vertex="1" parent="1">
          <mxGeometry x="400" y="70" width="40" height="40" as="geometry" />
        </mxCell>
        <mxCell id="SIFYPCahr8CVQ4eLkMU3-10" value="5" style="strokeWidth=2;html=1;shape=mxgraph.flowchart.start_2;whiteSpace=wrap;fillColor=#dae8fc;strokeColor=#6c8ebf;" vertex="1" parent="1">
          <mxGeometry x="440" y="70" width="40" height="40" as="geometry" />
        </mxCell>
        <mxCell id="SIFYPCahr8CVQ4eLkMU3-11" value="arr[0]" style="rounded=1;whiteSpace=wrap;html=1;absoluteArcSize=1;arcSize=14;strokeWidth=2;strokeColor=none;fontColor=#3333FF;" vertex="1" parent="1">
          <mxGeometry x="280" y="30" width="40" height="40" as="geometry" />
        </mxCell>
        <mxCell id="SIFYPCahr8CVQ4eLkMU3-12" value="arr[1]" style="rounded=1;whiteSpace=wrap;html=1;absoluteArcSize=1;arcSize=14;strokeWidth=2;strokeColor=none;fontColor=#3333FF;" vertex="1" parent="1">
          <mxGeometry x="320" y="30" width="40" height="40" as="geometry" />
        </mxCell>
        <mxCell id="SIFYPCahr8CVQ4eLkMU3-13" value="arr[2]" style="rounded=1;whiteSpace=wrap;html=1;absoluteArcSize=1;arcSize=14;strokeWidth=2;strokeColor=none;fontColor=#3333FF;" vertex="1" parent="1">
          <mxGeometry x="360" y="30" width="40" height="40" as="geometry" />
        </mxCell>
        <mxCell id="SIFYPCahr8CVQ4eLkMU3-14" value="arr[3]" style="rounded=1;whiteSpace=wrap;html=1;absoluteArcSize=1;arcSize=14;strokeWidth=2;strokeColor=none;fontColor=#3333FF;" vertex="1" parent="1">
          <mxGeometry x="400" y="30" width="40" height="40" as="geometry" />
        </mxCell>
        <mxCell id="SIFYPCahr8CVQ4eLkMU3-15" value="arr[4]" style="rounded=1;whiteSpace=wrap;html=1;absoluteArcSize=1;arcSize=14;strokeWidth=2;strokeColor=none;fontColor=#3333FF;" vertex="1" parent="1">
          <mxGeometry x="440" y="30" width="40" height="40" as="geometry" />
        </mxCell>
        <mxCell id="SIFYPCahr8CVQ4eLkMU3-16" value="0" style="rounded=1;whiteSpace=wrap;html=1;absoluteArcSize=1;arcSize=14;strokeWidth=2;strokeColor=none;fontColor=#00CC00;" vertex="1" parent="1">
          <mxGeometry x="280" y="10" width="40" height="40" as="geometry" />
        </mxCell>
        <mxCell id="SIFYPCahr8CVQ4eLkMU3-17" value="1" style="rounded=1;whiteSpace=wrap;html=1;absoluteArcSize=1;arcSize=14;strokeWidth=2;strokeColor=none;fontColor=#00CC00;" vertex="1" parent="1">
          <mxGeometry x="320" y="10" width="40" height="40" as="geometry" />
        </mxCell>
        <mxCell id="SIFYPCahr8CVQ4eLkMU3-18" value="2" style="rounded=1;whiteSpace=wrap;html=1;absoluteArcSize=1;arcSize=14;strokeWidth=2;strokeColor=none;fontColor=#00CC00;" vertex="1" parent="1">
          <mxGeometry x="360" y="10" width="40" height="40" as="geometry" />
        </mxCell>
        <mxCell id="SIFYPCahr8CVQ4eLkMU3-19" value="3" style="rounded=1;whiteSpace=wrap;html=1;absoluteArcSize=1;arcSize=14;strokeWidth=2;strokeColor=none;fontColor=#00CC00;" vertex="1" parent="1">
          <mxGeometry x="400" y="10" width="40" height="40" as="geometry" />
        </mxCell>
        <mxCell id="SIFYPCahr8CVQ4eLkMU3-20" value="4" style="rounded=1;whiteSpace=wrap;html=1;absoluteArcSize=1;arcSize=14;strokeWidth=2;strokeColor=none;fontColor=#00CC00;" vertex="1" parent="1">
          <mxGeometry x="440" y="10" width="40" height="40" as="geometry" />
        </mxCell>
        <mxCell id="SIFYPCahr8CVQ4eLkMU3-21" value="i" style="rounded=1;whiteSpace=wrap;html=1;absoluteArcSize=1;arcSize=14;strokeWidth=2;strokeColor=none;fontStyle=1;fontColor=#FF0000;" vertex="1" parent="1">
          <mxGeometry x="240" y="10" width="40" height="40" as="geometry" />
        </mxCell>
        <mxCell id="SIFYPCahr8CVQ4eLkMU3-22" value="array" style="rounded=1;whiteSpace=wrap;html=1;absoluteArcSize=1;arcSize=14;strokeWidth=2;strokeColor=none;fontStyle=1;fontColor=#FF0000;" vertex="1" parent="1">
          <mxGeometry x="240" y="50" width="40" height="40" as="geometry" />
        </mxCell>
        <mxCell id="SIFYPCahr8CVQ4eLkMU3-25" value="" style="edgeStyle=orthogonalEdgeStyle;rounded=0;orthogonalLoop=1;jettySize=auto;html=1;" edge="1" parent="1" source="SIFYPCahr8CVQ4eLkMU3-23" target="SIFYPCahr8CVQ4eLkMU3-24">
          <mxGeometry relative="1" as="geometry" />
        </mxCell>
        <mxCell id="SIFYPCahr8CVQ4eLkMU3-23" value="start" style="strokeWidth=2;html=1;shape=mxgraph.flowchart.start_2;whiteSpace=wrap;" vertex="1" parent="1">
          <mxGeometry x="40" y="60" width="120" height="40" as="geometry" />
        </mxCell>
        <mxCell id="SIFYPCahr8CVQ4eLkMU3-27" value="yes" style="edgeStyle=orthogonalEdgeStyle;rounded=0;orthogonalLoop=1;jettySize=auto;html=1;" edge="1" parent="1" source="SIFYPCahr8CVQ4eLkMU3-24" target="SIFYPCahr8CVQ4eLkMU3-26">
          <mxGeometry relative="1" as="geometry" />
        </mxCell>
        <mxCell id="SIFYPCahr8CVQ4eLkMU3-37" value="no" style="edgeStyle=orthogonalEdgeStyle;rounded=0;orthogonalLoop=1;jettySize=auto;html=1;entryX=0.5;entryY=0;entryDx=0;entryDy=0;entryPerimeter=0;" edge="1" parent="1" source="SIFYPCahr8CVQ4eLkMU3-24" target="SIFYPCahr8CVQ4eLkMU3-36">
          <mxGeometry relative="1" as="geometry" />
        </mxCell>
        <mxCell id="SIFYPCahr8CVQ4eLkMU3-24" value="arr[0] &amp;gt; arr[1]" style="strokeWidth=2;html=1;shape=mxgraph.flowchart.decision;whiteSpace=wrap;" vertex="1" parent="1">
          <mxGeometry x="40" y="140" width="120" height="40" as="geometry" />
        </mxCell>
        <mxCell id="SIFYPCahr8CVQ4eLkMU3-29" value="yes" style="edgeStyle=orthogonalEdgeStyle;rounded=0;orthogonalLoop=1;jettySize=auto;html=1;" edge="1" parent="1" source="SIFYPCahr8CVQ4eLkMU3-26" target="SIFYPCahr8CVQ4eLkMU3-28">
          <mxGeometry relative="1" as="geometry" />
        </mxCell>
        <mxCell id="SIFYPCahr8CVQ4eLkMU3-67" value="" style="edgeStyle=orthogonalEdgeStyle;rounded=0;orthogonalLoop=1;jettySize=auto;html=1;" edge="1" parent="1" source="SIFYPCahr8CVQ4eLkMU3-26" target="SIFYPCahr8CVQ4eLkMU3-66">
          <mxGeometry relative="1" as="geometry" />
        </mxCell>
        <mxCell id="SIFYPCahr8CVQ4eLkMU3-26" value="arr[0] &amp;gt; arr[2]" style="strokeWidth=2;html=1;shape=mxgraph.flowchart.decision;whiteSpace=wrap;" vertex="1" parent="1">
          <mxGeometry x="40" y="220" width="120" height="40" as="geometry" />
        </mxCell>
        <mxCell id="SIFYPCahr8CVQ4eLkMU3-31" value="yes" style="edgeStyle=orthogonalEdgeStyle;rounded=0;orthogonalLoop=1;jettySize=auto;html=1;" edge="1" parent="1" source="SIFYPCahr8CVQ4eLkMU3-28" target="SIFYPCahr8CVQ4eLkMU3-30">
          <mxGeometry relative="1" as="geometry" />
        </mxCell>
        <mxCell id="SIFYPCahr8CVQ4eLkMU3-52" value="" style="edgeStyle=orthogonalEdgeStyle;rounded=0;orthogonalLoop=1;jettySize=auto;html=1;" edge="1" parent="1" source="SIFYPCahr8CVQ4eLkMU3-28" target="SIFYPCahr8CVQ4eLkMU3-51">
          <mxGeometry relative="1" as="geometry" />
        </mxCell>
        <mxCell id="SIFYPCahr8CVQ4eLkMU3-28" value="arr[0] &amp;gt; arr[3]" style="strokeWidth=2;html=1;shape=mxgraph.flowchart.decision;whiteSpace=wrap;" vertex="1" parent="1">
          <mxGeometry x="40" y="300" width="120" height="40" as="geometry" />
        </mxCell>
        <mxCell id="SIFYPCahr8CVQ4eLkMU3-33" value="yes" style="edgeStyle=orthogonalEdgeStyle;rounded=0;orthogonalLoop=1;jettySize=auto;html=1;" edge="1" parent="1" source="SIFYPCahr8CVQ4eLkMU3-30" target="SIFYPCahr8CVQ4eLkMU3-32">
          <mxGeometry relative="1" as="geometry" />
        </mxCell>
        <mxCell id="SIFYPCahr8CVQ4eLkMU3-54" value="" style="edgeStyle=orthogonalEdgeStyle;rounded=0;orthogonalLoop=1;jettySize=auto;html=1;" edge="1" parent="1" source="SIFYPCahr8CVQ4eLkMU3-30" target="SIFYPCahr8CVQ4eLkMU3-53">
          <mxGeometry relative="1" as="geometry" />
        </mxCell>
        <mxCell id="SIFYPCahr8CVQ4eLkMU3-30" value="arr[0] &amp;gt; arr[4]" style="strokeWidth=2;html=1;shape=mxgraph.flowchart.decision;whiteSpace=wrap;" vertex="1" parent="1">
          <mxGeometry x="40" y="380" width="120" height="40" as="geometry" />
        </mxCell>
        <mxCell id="SIFYPCahr8CVQ4eLkMU3-35" value="" style="edgeStyle=orthogonalEdgeStyle;rounded=0;orthogonalLoop=1;jettySize=auto;html=1;" edge="1" parent="1" source="SIFYPCahr8CVQ4eLkMU3-32" target="SIFYPCahr8CVQ4eLkMU3-34">
          <mxGeometry relative="1" as="geometry" />
        </mxCell>
        <mxCell id="SIFYPCahr8CVQ4eLkMU3-32" value="arr[0]" style="strokeWidth=2;html=1;shape=mxgraph.flowchart.document2;whiteSpace=wrap;size=0.25;" vertex="1" parent="1">
          <mxGeometry x="40" y="500" width="120" height="40" as="geometry" />
        </mxCell>
        <mxCell id="SIFYPCahr8CVQ4eLkMU3-34" value="end" style="strokeWidth=2;html=1;shape=mxgraph.flowchart.start_2;whiteSpace=wrap;" vertex="1" parent="1">
          <mxGeometry x="40" y="580" width="120" height="40" as="geometry" />
        </mxCell>
        <mxCell id="SIFYPCahr8CVQ4eLkMU3-42" value="yes" style="edgeStyle=orthogonalEdgeStyle;rounded=0;orthogonalLoop=1;jettySize=auto;html=1;" edge="1" parent="1" source="SIFYPCahr8CVQ4eLkMU3-36" target="SIFYPCahr8CVQ4eLkMU3-40">
          <mxGeometry relative="1" as="geometry" />
        </mxCell>
        <mxCell id="SIFYPCahr8CVQ4eLkMU3-61" value="no" style="edgeStyle=orthogonalEdgeStyle;rounded=0;orthogonalLoop=1;jettySize=auto;html=1;" edge="1" parent="1" source="SIFYPCahr8CVQ4eLkMU3-36" target="SIFYPCahr8CVQ4eLkMU3-60">
          <mxGeometry relative="1" as="geometry" />
        </mxCell>
        <mxCell id="SIFYPCahr8CVQ4eLkMU3-36" value="arr[1] &amp;gt; arr[2]" style="strokeWidth=2;html=1;shape=mxgraph.flowchart.decision;whiteSpace=wrap;" vertex="1" parent="1">
          <mxGeometry x="280" y="180" width="120" height="40" as="geometry" />
        </mxCell>
        <mxCell id="SIFYPCahr8CVQ4eLkMU3-43" value="yes" style="edgeStyle=orthogonalEdgeStyle;rounded=0;orthogonalLoop=1;jettySize=auto;html=1;" edge="1" parent="1" source="SIFYPCahr8CVQ4eLkMU3-40" target="SIFYPCahr8CVQ4eLkMU3-41">
          <mxGeometry relative="1" as="geometry" />
        </mxCell>
        <mxCell id="SIFYPCahr8CVQ4eLkMU3-64" value="no" style="edgeStyle=orthogonalEdgeStyle;rounded=0;orthogonalLoop=1;jettySize=auto;html=1;" edge="1" parent="1" source="SIFYPCahr8CVQ4eLkMU3-40">
          <mxGeometry relative="1" as="geometry">
            <mxPoint x="440" y="280" as="targetPoint" />
          </mxGeometry>
        </mxCell>
        <mxCell id="SIFYPCahr8CVQ4eLkMU3-40" value="arr[1] &amp;gt; arr[3]" style="strokeWidth=2;html=1;shape=mxgraph.flowchart.decision;whiteSpace=wrap;" vertex="1" parent="1">
          <mxGeometry x="280" y="260" width="120" height="40" as="geometry" />
        </mxCell>
        <mxCell id="SIFYPCahr8CVQ4eLkMU3-45" value="yes" style="edgeStyle=orthogonalEdgeStyle;rounded=0;orthogonalLoop=1;jettySize=auto;html=1;" edge="1" parent="1" source="SIFYPCahr8CVQ4eLkMU3-41" target="SIFYPCahr8CVQ4eLkMU3-44">
          <mxGeometry relative="1" as="geometry" />
        </mxCell>
        <mxCell id="SIFYPCahr8CVQ4eLkMU3-65" value="no" style="edgeStyle=orthogonalEdgeStyle;rounded=0;orthogonalLoop=1;jettySize=auto;html=1;" edge="1" parent="1" source="SIFYPCahr8CVQ4eLkMU3-41">
          <mxGeometry relative="1" as="geometry">
            <mxPoint x="440" y="360" as="targetPoint" />
          </mxGeometry>
        </mxCell>
        <mxCell id="SIFYPCahr8CVQ4eLkMU3-41" value="arr[1] &amp;gt; arr[4]" style="strokeWidth=2;html=1;shape=mxgraph.flowchart.decision;whiteSpace=wrap;" vertex="1" parent="1">
          <mxGeometry x="280" y="340" width="120" height="40" as="geometry" />
        </mxCell>
        <mxCell id="SIFYPCahr8CVQ4eLkMU3-59" style="edgeStyle=orthogonalEdgeStyle;rounded=0;orthogonalLoop=1;jettySize=auto;html=1;" edge="1" parent="1" source="SIFYPCahr8CVQ4eLkMU3-44">
          <mxGeometry relative="1" as="geometry">
            <mxPoint x="100" y="560" as="targetPoint" />
            <Array as="points">
              <mxPoint x="380" y="560" />
            </Array>
          </mxGeometry>
        </mxCell>
        <mxCell id="SIFYPCahr8CVQ4eLkMU3-44" value="arr[1]" style="strokeWidth=2;html=1;shape=mxgraph.flowchart.document2;whiteSpace=wrap;size=0.25;" vertex="1" parent="1">
          <mxGeometry x="280" y="500" width="120" height="40" as="geometry" />
        </mxCell>
        <mxCell id="SIFYPCahr8CVQ4eLkMU3-51" value="" style="verticalLabelPosition=bottom;verticalAlign=top;html=1;shape=mxgraph.flowchart.parallel_mode;pointerEvents=1" vertex="1" parent="1">
          <mxGeometry x="185" y="300" width="95" height="40" as="geometry" />
        </mxCell>
        <mxCell id="SIFYPCahr8CVQ4eLkMU3-53" value="" style="verticalLabelPosition=bottom;verticalAlign=top;html=1;shape=mxgraph.flowchart.parallel_mode;pointerEvents=1" vertex="1" parent="1">
          <mxGeometry x="185" y="380" width="95" height="40" as="geometry" />
        </mxCell>
        <mxCell id="SIFYPCahr8CVQ4eLkMU3-60" value="" style="verticalLabelPosition=bottom;verticalAlign=top;html=1;shape=mxgraph.flowchart.parallel_mode;pointerEvents=1" vertex="1" parent="1">
          <mxGeometry x="440" y="180" width="95" height="40" as="geometry" />
        </mxCell>
        <mxCell id="SIFYPCahr8CVQ4eLkMU3-66" value="" style="verticalLabelPosition=bottom;verticalAlign=top;html=1;shape=mxgraph.flowchart.parallel_mode;pointerEvents=1" vertex="1" parent="1">
          <mxGeometry x="185" y="220" width="95" height="40" as="geometry" />
        </mxCell>
        <mxCell id="SIFYPCahr8CVQ4eLkMU3-70" value="" style="edgeStyle=orthogonalEdgeStyle;rounded=0;orthogonalLoop=1;jettySize=auto;html=1;" edge="1" parent="1" source="SIFYPCahr8CVQ4eLkMU3-68" target="SIFYPCahr8CVQ4eLkMU3-69">
          <mxGeometry relative="1" as="geometry" />
        </mxCell>
        <mxCell id="SIFYPCahr8CVQ4eLkMU3-68" value="start" style="strokeWidth=2;html=1;shape=mxgraph.flowchart.start_2;whiteSpace=wrap;" vertex="1" parent="1">
          <mxGeometry x="650" y="40" width="120" height="40" as="geometry" />
        </mxCell>
        <mxCell id="SIFYPCahr8CVQ4eLkMU3-76" style="edgeStyle=orthogonalEdgeStyle;rounded=0;orthogonalLoop=1;jettySize=auto;html=1;entryX=0.5;entryY=0;entryDx=0;entryDy=0;entryPerimeter=0;" edge="1" parent="1" source="SIFYPCahr8CVQ4eLkMU3-69" target="SIFYPCahr8CVQ4eLkMU3-71">
          <mxGeometry relative="1" as="geometry" />
        </mxCell>
        <mxCell id="SIFYPCahr8CVQ4eLkMU3-69" value="max = arr[0]" style="rounded=1;whiteSpace=wrap;html=1;absoluteArcSize=1;arcSize=14;strokeWidth=2;" vertex="1" parent="1">
          <mxGeometry x="650" y="120" width="120" height="40" as="geometry" />
        </mxCell>
        <mxCell id="SIFYPCahr8CVQ4eLkMU3-77" value="yes" style="edgeStyle=orthogonalEdgeStyle;rounded=0;orthogonalLoop=1;jettySize=auto;html=1;entryX=0.5;entryY=0;entryDx=0;entryDy=0;" edge="1" parent="1" source="SIFYPCahr8CVQ4eLkMU3-71" target="SIFYPCahr8CVQ4eLkMU3-72">
          <mxGeometry relative="1" as="geometry" />
        </mxCell>
        <mxCell id="SIFYPCahr8CVQ4eLkMU3-81" value="no" style="edgeStyle=orthogonalEdgeStyle;rounded=0;orthogonalLoop=1;jettySize=auto;html=1;" edge="1" parent="1" source="SIFYPCahr8CVQ4eLkMU3-71">
          <mxGeometry x="-0.4167" relative="1" as="geometry">
            <mxPoint x="710" y="340" as="targetPoint" />
            <Array as="points">
              <mxPoint x="800" y="220" />
              <mxPoint x="800" y="340" />
            </Array>
            <mxPoint as="offset" />
          </mxGeometry>
        </mxCell>
        <mxCell id="SIFYPCahr8CVQ4eLkMU3-71" value="arr[1] &amp;gt; max" style="strokeWidth=2;html=1;shape=mxgraph.flowchart.decision;whiteSpace=wrap;fillColor=#f8cecc;strokeColor=#b85450;" vertex="1" parent="1">
          <mxGeometry x="650" y="200" width="120" height="40" as="geometry" />
        </mxCell>
        <mxCell id="SIFYPCahr8CVQ4eLkMU3-86" value="" style="edgeStyle=orthogonalEdgeStyle;rounded=0;orthogonalLoop=1;jettySize=auto;html=1;" edge="1" parent="1" source="SIFYPCahr8CVQ4eLkMU3-72" target="SIFYPCahr8CVQ4eLkMU3-73">
          <mxGeometry relative="1" as="geometry" />
        </mxCell>
        <mxCell id="SIFYPCahr8CVQ4eLkMU3-72" value="max = arr[1]" style="rounded=1;whiteSpace=wrap;html=1;absoluteArcSize=1;arcSize=14;strokeWidth=2;fillColor=#f8cecc;strokeColor=#b85450;" vertex="1" parent="1">
          <mxGeometry x="650" y="280" width="120" height="40" as="geometry" />
        </mxCell>
        <mxCell id="SIFYPCahr8CVQ4eLkMU3-79" value="yes" style="edgeStyle=orthogonalEdgeStyle;rounded=0;orthogonalLoop=1;jettySize=auto;html=1;entryX=0.5;entryY=0;entryDx=0;entryDy=0;" edge="1" parent="1" source="SIFYPCahr8CVQ4eLkMU3-73" target="SIFYPCahr8CVQ4eLkMU3-74">
          <mxGeometry relative="1" as="geometry" />
        </mxCell>
        <mxCell id="SIFYPCahr8CVQ4eLkMU3-73" value="arr[2] &amp;gt; max" style="strokeWidth=2;html=1;shape=mxgraph.flowchart.decision;whiteSpace=wrap;" vertex="1" parent="1">
          <mxGeometry x="650" y="360" width="120" height="40" as="geometry" />
        </mxCell>
        <mxCell id="SIFYPCahr8CVQ4eLkMU3-83" value="" style="edgeStyle=orthogonalEdgeStyle;rounded=0;orthogonalLoop=1;jettySize=auto;html=1;" edge="1" parent="1" source="SIFYPCahr8CVQ4eLkMU3-74" target="SIFYPCahr8CVQ4eLkMU3-82">
          <mxGeometry relative="1" as="geometry" />
        </mxCell>
        <mxCell id="SIFYPCahr8CVQ4eLkMU3-74" value="max = arr[2]" style="rounded=1;whiteSpace=wrap;html=1;absoluteArcSize=1;arcSize=14;strokeWidth=2;" vertex="1" parent="1">
          <mxGeometry x="650" y="440" width="120" height="40" as="geometry" />
        </mxCell>
        <mxCell id="SIFYPCahr8CVQ4eLkMU3-88" value="" style="edgeStyle=orthogonalEdgeStyle;rounded=0;orthogonalLoop=1;jettySize=auto;html=1;" edge="1" parent="1" source="SIFYPCahr8CVQ4eLkMU3-82" target="SIFYPCahr8CVQ4eLkMU3-87">
          <mxGeometry relative="1" as="geometry" />
        </mxCell>
        <mxCell id="SIFYPCahr8CVQ4eLkMU3-82" value="arr[3] &amp;gt; max" style="strokeWidth=2;html=1;shape=mxgraph.flowchart.decision;whiteSpace=wrap;" vertex="1" parent="1">
          <mxGeometry x="650" y="520" width="120" height="40" as="geometry" />
        </mxCell>
        <mxCell id="SIFYPCahr8CVQ4eLkMU3-85" value="no" style="edgeStyle=orthogonalEdgeStyle;rounded=0;orthogonalLoop=1;jettySize=auto;html=1;" edge="1" parent="1">
          <mxGeometry x="-0.4167" relative="1" as="geometry">
            <mxPoint x="710" y="500" as="targetPoint" />
            <mxPoint x="770" y="380" as="sourcePoint" />
            <Array as="points">
              <mxPoint x="800" y="380" />
              <mxPoint x="800" y="500" />
            </Array>
            <mxPoint as="offset" />
          </mxGeometry>
        </mxCell>
        <mxCell id="SIFYPCahr8CVQ4eLkMU3-87" value="" style="verticalLabelPosition=bottom;verticalAlign=top;html=1;shape=mxgraph.flowchart.parallel_mode;pointerEvents=1" vertex="1" parent="1">
          <mxGeometry x="662.5" y="600" width="95" height="40" as="geometry" />
        </mxCell>
        <mxCell id="SIFYPCahr8CVQ4eLkMU3-89" value="yes" style="edgeStyle=orthogonalEdgeStyle;rounded=0;orthogonalLoop=1;jettySize=auto;html=1;entryX=0.5;entryY=0;entryDx=0;entryDy=0;" edge="1" parent="1" source="SIFYPCahr8CVQ4eLkMU3-91" target="SIFYPCahr8CVQ4eLkMU3-93">
          <mxGeometry relative="1" as="geometry" />
        </mxCell>
        <mxCell id="SIFYPCahr8CVQ4eLkMU3-90" value="no" style="edgeStyle=orthogonalEdgeStyle;rounded=0;orthogonalLoop=1;jettySize=auto;html=1;" edge="1" parent="1" source="SIFYPCahr8CVQ4eLkMU3-91">
          <mxGeometry x="-0.4167" relative="1" as="geometry">
            <mxPoint x="260" y="1000" as="targetPoint" />
            <Array as="points">
              <mxPoint x="350" y="780" />
              <mxPoint x="350" y="1000" />
            </Array>
            <mxPoint as="offset" />
          </mxGeometry>
        </mxCell>
        <mxCell id="SIFYPCahr8CVQ4eLkMU3-91" value="arr[i] &amp;gt; max" style="strokeWidth=2;html=1;shape=mxgraph.flowchart.decision;whiteSpace=wrap;fillColor=#f8cecc;strokeColor=#b85450;" vertex="1" parent="1">
          <mxGeometry x="200" y="760" width="120" height="40" as="geometry" />
        </mxCell>
        <mxCell id="SIFYPCahr8CVQ4eLkMU3-92" value="" style="edgeStyle=orthogonalEdgeStyle;rounded=0;orthogonalLoop=1;jettySize=auto;html=1;" edge="1" parent="1" source="SIFYPCahr8CVQ4eLkMU3-93">
          <mxGeometry relative="1" as="geometry">
            <mxPoint x="260" y="920" as="targetPoint" />
          </mxGeometry>
        </mxCell>
        <mxCell id="SIFYPCahr8CVQ4eLkMU3-93" value="max = arr[i]" style="rounded=1;whiteSpace=wrap;html=1;absoluteArcSize=1;arcSize=14;strokeWidth=2;fillColor=#f8cecc;strokeColor=#b85450;" vertex="1" parent="1">
          <mxGeometry x="200" y="840" width="120" height="40" as="geometry" />
        </mxCell>
        <mxCell id="SIFYPCahr8CVQ4eLkMU3-95" value="" style="edgeStyle=orthogonalEdgeStyle;rounded=0;orthogonalLoop=1;jettySize=auto;html=1;" edge="1" parent="1" source="SIFYPCahr8CVQ4eLkMU3-94" target="SIFYPCahr8CVQ4eLkMU3-91">
          <mxGeometry relative="1" as="geometry" />
        </mxCell>
        <mxCell id="SIFYPCahr8CVQ4eLkMU3-94" value="i = 1" style="rounded=1;whiteSpace=wrap;html=1;absoluteArcSize=1;arcSize=14;strokeWidth=2;" vertex="1" parent="1">
          <mxGeometry x="200" y="680" width="120" height="40" as="geometry" />
        </mxCell>
        <mxCell id="SIFYPCahr8CVQ4eLkMU3-98" value="" style="edgeStyle=orthogonalEdgeStyle;rounded=0;orthogonalLoop=1;jettySize=auto;html=1;" edge="1" parent="1" source="SIFYPCahr8CVQ4eLkMU3-96" target="SIFYPCahr8CVQ4eLkMU3-97">
          <mxGeometry relative="1" as="geometry" />
        </mxCell>
        <mxCell id="SIFYPCahr8CVQ4eLkMU3-96" value="i = i + 1" style="rounded=1;whiteSpace=wrap;html=1;absoluteArcSize=1;arcSize=14;strokeWidth=2;fillColor=#dae8fc;strokeColor=#6c8ebf;" vertex="1" parent="1">
          <mxGeometry x="200" y="920" width="120" height="40" as="geometry" />
        </mxCell>
        <mxCell id="SIFYPCahr8CVQ4eLkMU3-97" value="" style="shape=waypoint;sketch=0;size=6;pointerEvents=1;points=[];fillColor=default;resizable=0;rotatable=0;perimeter=centerPerimeter;snapToPoint=1;rounded=1;arcSize=14;strokeWidth=2;" vertex="1" parent="1">
          <mxGeometry x="250" y="1020" width="20" height="20" as="geometry" />
        </mxCell>
        <mxCell id="SIFYPCahr8CVQ4eLkMU3-99" value="yes" style="edgeStyle=orthogonalEdgeStyle;rounded=0;orthogonalLoop=1;jettySize=auto;html=1;entryX=0.5;entryY=0;entryDx=0;entryDy=0;" edge="1" parent="1" source="SIFYPCahr8CVQ4eLkMU3-101" target="SIFYPCahr8CVQ4eLkMU3-103">
          <mxGeometry relative="1" as="geometry" />
        </mxCell>
        <mxCell id="SIFYPCahr8CVQ4eLkMU3-120" value="no" style="edgeStyle=orthogonalEdgeStyle;rounded=0;orthogonalLoop=1;jettySize=auto;html=1;" edge="1" parent="1" source="SIFYPCahr8CVQ4eLkMU3-101">
          <mxGeometry x="-0.4547" relative="1" as="geometry">
            <mxPoint x="540" y="860" as="targetPoint" />
            <Array as="points">
              <mxPoint x="620" y="740" />
              <mxPoint x="620" y="860" />
            </Array>
            <mxPoint as="offset" />
          </mxGeometry>
        </mxCell>
        <mxCell id="SIFYPCahr8CVQ4eLkMU3-101" value="arr[i] &amp;gt; max" style="strokeWidth=2;html=1;shape=mxgraph.flowchart.decision;whiteSpace=wrap;fillColor=#f8cecc;strokeColor=#b85450;" vertex="1" parent="1">
          <mxGeometry x="480" y="720" width="120" height="40" as="geometry" />
        </mxCell>
        <mxCell id="SIFYPCahr8CVQ4eLkMU3-102" value="" style="edgeStyle=orthogonalEdgeStyle;rounded=0;orthogonalLoop=1;jettySize=auto;html=1;" edge="1" parent="1" source="SIFYPCahr8CVQ4eLkMU3-103">
          <mxGeometry relative="1" as="geometry">
            <mxPoint x="540" y="880" as="targetPoint" />
          </mxGeometry>
        </mxCell>
        <mxCell id="SIFYPCahr8CVQ4eLkMU3-103" value="max = arr[i]" style="rounded=1;whiteSpace=wrap;html=1;absoluteArcSize=1;arcSize=14;strokeWidth=2;fillColor=#f8cecc;strokeColor=#b85450;" vertex="1" parent="1">
          <mxGeometry x="480" y="800" width="120" height="40" as="geometry" />
        </mxCell>
        <mxCell id="SIFYPCahr8CVQ4eLkMU3-122" style="edgeStyle=orthogonalEdgeStyle;rounded=0;orthogonalLoop=1;jettySize=auto;html=1;entryX=0.5;entryY=0;entryDx=0;entryDy=0;entryPerimeter=0;" edge="1" parent="1" source="SIFYPCahr8CVQ4eLkMU3-105" target="SIFYPCahr8CVQ4eLkMU3-115">
          <mxGeometry relative="1" as="geometry" />
        </mxCell>
        <mxCell id="SIFYPCahr8CVQ4eLkMU3-105" value="i = 1" style="rounded=1;whiteSpace=wrap;html=1;absoluteArcSize=1;arcSize=14;strokeWidth=2;fillColor=#dae8fc;strokeColor=#6c8ebf;" vertex="1" parent="1">
          <mxGeometry x="480" y="560" width="120" height="40" as="geometry" />
        </mxCell>
        <mxCell id="SIFYPCahr8CVQ4eLkMU3-113" style="edgeStyle=orthogonalEdgeStyle;rounded=0;orthogonalLoop=1;jettySize=auto;html=1;" edge="1" parent="1" source="SIFYPCahr8CVQ4eLkMU3-107">
          <mxGeometry relative="1" as="geometry">
            <mxPoint x="540" y="620" as="targetPoint" />
            <Array as="points">
              <mxPoint x="540" y="940" />
              <mxPoint x="460" y="940" />
              <mxPoint x="460" y="620" />
            </Array>
          </mxGeometry>
        </mxCell>
        <mxCell id="SIFYPCahr8CVQ4eLkMU3-107" value="i = i + 1" style="rounded=1;whiteSpace=wrap;html=1;absoluteArcSize=1;arcSize=14;strokeWidth=2;fillColor=#dae8fc;strokeColor=#6c8ebf;" vertex="1" parent="1">
          <mxGeometry x="480" y="880" width="120" height="40" as="geometry" />
        </mxCell>
        <mxCell id="SIFYPCahr8CVQ4eLkMU3-131" value="" style="edgeStyle=orthogonalEdgeStyle;rounded=0;orthogonalLoop=1;jettySize=auto;html=1;" edge="1" parent="1" source="SIFYPCahr8CVQ4eLkMU3-109" target="SIFYPCahr8CVQ4eLkMU3-130">
          <mxGeometry relative="1" as="geometry" />
        </mxCell>
        <mxCell id="SIFYPCahr8CVQ4eLkMU3-109" value="start" style="strokeWidth=2;html=1;shape=mxgraph.flowchart.start_2;whiteSpace=wrap;" vertex="1" parent="1">
          <mxGeometry x="480" y="320" width="120" height="40" as="geometry" />
        </mxCell>
        <mxCell id="SIFYPCahr8CVQ4eLkMU3-129" value="" style="edgeStyle=orthogonalEdgeStyle;rounded=0;orthogonalLoop=1;jettySize=auto;html=1;" edge="1" parent="1" source="SIFYPCahr8CVQ4eLkMU3-110" target="SIFYPCahr8CVQ4eLkMU3-105">
          <mxGeometry relative="1" as="geometry" />
        </mxCell>
        <mxCell id="SIFYPCahr8CVQ4eLkMU3-110" value="max = arr[0]" style="rounded=1;whiteSpace=wrap;html=1;absoluteArcSize=1;arcSize=14;strokeWidth=2;fillColor=#fff2cc;strokeColor=#d6b656;" vertex="1" parent="1">
          <mxGeometry x="480" y="480" width="120" height="40" as="geometry" />
        </mxCell>
        <mxCell id="SIFYPCahr8CVQ4eLkMU3-114" value="end" style="strokeWidth=2;html=1;shape=mxgraph.flowchart.start_2;whiteSpace=wrap;" vertex="1" parent="1">
          <mxGeometry x="480" y="1040" width="120" height="40" as="geometry" />
        </mxCell>
        <mxCell id="SIFYPCahr8CVQ4eLkMU3-121" value="no" style="edgeStyle=orthogonalEdgeStyle;rounded=0;orthogonalLoop=1;jettySize=auto;html=1;entryX=0.5;entryY=0;entryDx=0;entryDy=0;entryPerimeter=0;" edge="1" parent="1" source="SIFYPCahr8CVQ4eLkMU3-115">
          <mxGeometry x="-0.2727" relative="1" as="geometry">
            <mxPoint x="540" y="960" as="targetPoint" />
            <Array as="points">
              <mxPoint x="640" y="660" />
              <mxPoint x="640" y="950" />
              <mxPoint x="540" y="950" />
            </Array>
            <mxPoint as="offset" />
          </mxGeometry>
        </mxCell>
        <mxCell id="SIFYPCahr8CVQ4eLkMU3-123" value="yes" style="edgeStyle=orthogonalEdgeStyle;rounded=0;orthogonalLoop=1;jettySize=auto;html=1;" edge="1" parent="1" source="SIFYPCahr8CVQ4eLkMU3-115" target="SIFYPCahr8CVQ4eLkMU3-101">
          <mxGeometry relative="1" as="geometry" />
        </mxCell>
        <mxCell id="SIFYPCahr8CVQ4eLkMU3-115" value="i &amp;lt; arr.length" style="strokeWidth=2;html=1;shape=mxgraph.flowchart.decision;whiteSpace=wrap;fillColor=#dae8fc;strokeColor=#6c8ebf;" vertex="1" parent="1">
          <mxGeometry x="480" y="640" width="120" height="40" as="geometry" />
        </mxCell>
        <mxCell id="SIFYPCahr8CVQ4eLkMU3-127" value="" style="edgeStyle=orthogonalEdgeStyle;rounded=0;orthogonalLoop=1;jettySize=auto;html=1;" edge="1" parent="1" source="SIFYPCahr8CVQ4eLkMU3-126" target="SIFYPCahr8CVQ4eLkMU3-114">
          <mxGeometry relative="1" as="geometry" />
        </mxCell>
        <mxCell id="SIFYPCahr8CVQ4eLkMU3-126" value="max" style="strokeWidth=2;html=1;shape=mxgraph.flowchart.document2;whiteSpace=wrap;size=0.25;fillColor=#d5e8d4;strokeColor=#82b366;" vertex="1" parent="1">
          <mxGeometry x="480" y="960" width="120" height="40" as="geometry" />
        </mxCell>
        <mxCell id="SIFYPCahr8CVQ4eLkMU3-132" value="" style="edgeStyle=orthogonalEdgeStyle;rounded=0;orthogonalLoop=1;jettySize=auto;html=1;" edge="1" parent="1" source="SIFYPCahr8CVQ4eLkMU3-130" target="SIFYPCahr8CVQ4eLkMU3-110">
          <mxGeometry relative="1" as="geometry" />
        </mxCell>
        <mxCell id="SIFYPCahr8CVQ4eLkMU3-130" value="arr" style="shape=parallelogram;html=1;strokeWidth=2;perimeter=parallelogramPerimeter;whiteSpace=wrap;rounded=1;arcSize=12;size=0.23;fillColor=#e1d5e7;strokeColor=#9673a6;" vertex="1" parent="1">
          <mxGeometry x="480" y="400" width="120" height="40" as="geometry" />
        </mxCell>
      </root>
    </mxGraphModel>
  </diagram>
</mxfile>
